<svg xmlns="http://www.w3.org/2000/svg" width="108" height="108" fill="none"><path fill="#366EFF" fill-opacity=".05" stroke="#366EFF" d="M107.5 54c0 29.547-23.953 53.5-53.5 53.5S.5 83.547.5 54 24.453.5 54 .5s53.5 23.953 53.5 53.5Z"/><path fill="#366EFF" d="M87.625 61.261a.733.733 0 0 1-.723-.723V50.143a.723.723 0 1 1 1.446 0v10.404a.724.724 0 0 1-.723.714Zm0-14.261a.723.723 0 0 1-.723-.724v-2.131a.723.723 0 1 1 1.446 0v2.14a.715.715 0 0 1-.723.714ZM29.01 36.566h-4.004a.751.751 0 0 1 0-1.502h4.003a.751.751 0 0 1 0 1.502Z"/><path fill="#366EFF" d="M27.008 38.568a.751.751 0 0 1-.75-.751v-4.004a.751.751 0 0 1 1.5 0v4.004a.75.75 0 0 1-.75.75Zm14.456 44.361a.965.965 0 1 1 0 1.929.965.965 0 0 1 0-1.93Zm-5.785 0a.965.965 0 1 1-.001 1.929.965.965 0 0 1 0-1.93Zm-5.786 0a.965.965 0 1 1 0 1.929.965.965 0 0 1 0-1.93Z"/><path fill="#fff" d="M53.848 26.147 26.735 48.421l27.113 22.284L80.96 48.42 53.848 26.147Z"/><path fill="#366EFF" d="M53.848 71.487a.75.75 0 0 1-.47-.22L26.267 48.985a.782.782 0 0 1-.205-.938.813.813 0 0 1 .205-.272L53.38 25.5a.782.782 0 0 1 1.042 0l27.112 22.274a.813.813 0 0 1 .282.605.781.781 0 0 1-.282.605L54.421 71.268a.75.75 0 0 1-.573.219ZM27.966 48.42l25.882 21.272L79.729 48.42 53.848 27.158 27.966 48.42Z"/><path fill="#fff" d="M73.14 32.404H34.556v45.882h38.582V32.404Z"/><path fill="#fff" d="m62.336 45.96-13.18 10.834v21.492h23.983V45.96H62.336Z"/><path fill="#fff" d="m62.336 45.96-13.18 10.834v21.492h23.983V45.96H62.336Z"/><path fill="#366EFF" d="M73.191 79.067H34.61a.793.793 0 0 1-.782-.781V32.402a.782.782 0 0 1 .782-.76h38.58a.782.782 0 0 1 .782.781v45.882a.792.792 0 0 1-.782.761ZM35.34 77.524h37.018V33.206H35.339v44.318Z"/><path fill="#366EFF" d="M66.361 39.442h-12.17a.782.782 0 0 1 0-1.564h12.17a.782.782 0 1 1 0 1.564Zm-16.341 0h-8.686a.782.782 0 0 1 0-1.564h8.687a.782.782 0 1 1 0 1.564Zm16.34 5.214h-7.997a.782.782 0 0 1 0-1.564h7.998a.782.782 0 0 1 0 1.564Zm-12.168 0H41.334a.782.782 0 0 1 0-1.564h12.858a.782.782 0 1 1 0 1.564Zm12.169 5.214H52.106a.782.782 0 1 1 0-1.564h14.255a.782.782 0 0 1 0 1.564Zm-18.426 0h-6.6a.782.782 0 0 1 0-1.564h6.6a.782.782 0 0 1 0 1.564Zm18.426 5.214h-6.955a.782.782 0 0 1 0-1.564h6.955a.782.782 0 0 1 0 1.564Zm-11.126 0h-13.9a.782.782 0 0 1 0-1.564h13.9a.782.782 0 0 1 0 1.564Zm5.568 5.214h-13.91a.782.782 0 0 1 0-1.564h13.91a.782.782 0 0 1 0 1.564Z"/><path fill="#fff" d="M26.735 48.42v29.865l18.166-14.932L26.735 48.42Zm36.06 14.933L80.96 78.285V48.421L62.795 63.352Z"/><path fill="#fff" d="M53.848 70.705 44.9 63.353 26.735 78.286H80.96L62.795 63.353l-8.947 7.352Z"/><path fill="#fff" d="M31.95 56.804V74l10.459-8.593-10.46-8.603Z"/><path fill="#fff" d="M31.95 56.804V74l10.459-8.593-10.46-8.603Zm39.145 8.311 9.865 8.113V57.013l-9.865 8.102Z"/><path fill="#fff" d="m71.095 65.115 9.865 8.113V57.013l-9.865 8.102Z"/><path fill="#366EFF" d="M26.736 79.068a.75.75 0 0 1-.334-.084.771.771 0 0 1-.448-.698V48.42a.771.771 0 0 1 .448-.698.782.782 0 0 1 .834.094l18.165 14.932a.792.792 0 0 1 0 1.21L27.236 78.88a.772.772 0 0 1-.5.188Zm.782-28.99v26.55L43.67 63.352 27.518 50.078Z"/><path fill="#fff" d="M67.977 67.607 56.56 76.992l-7.967-6.548-9.53 7.841H80.96L67.977 67.607Z"/><path fill="#fff" d="M67.977 67.607 56.56 76.992l-7.967-6.548-9.53 7.841H80.96L67.977 67.607Z"/><path fill="#366EFF" d="M80.96 79.068a.772.772 0 0 1-.5-.188L62.295 63.968a.791.791 0 0 1 0-1.21L80.49 47.817a.782.782 0 0 1 .834-.094.773.773 0 0 1 .448.698v29.865a.77.77 0 0 1-.448.7.752.752 0 0 1-.365.083ZM64.026 63.353l16.152 13.274V50.08L64.025 63.352Z"/><path fill="#366EFF" d="M80.96 79.068H26.736a.792.792 0 0 1-.74-.522.793.793 0 0 1 .239-.865L44.4 62.748a.782.782 0 0 1 1.043 0l8.446 6.945 8.447-6.945a.782.782 0 0 1 1.043 0l18.165 14.933a.793.793 0 0 1 .24.865.793.793 0 0 1-.824.522Zm-52.045-1.544H78.78l-16.017-13.16-8.446 6.945a.782.782 0 0 1-1.043 0l-8.446-6.944-15.913 13.16Zm23.237 7.256H48.15a.751.751 0 0 1 0-1.502h4.003a.751.751 0 0 1 0 1.502Z"/><path fill="#366EFF" d="M50.151 86.782a.751.751 0 0 1-.75-.75v-4.005a.751.751 0 0 1 1.5 0v4.004a.75.75 0 0 1-.75.75Z"/></svg>