<svg xmlns="http://www.w3.org/2000/svg" width="24" height="24" fill="none"><path fill="#000" fill-rule="evenodd" d="M5.33 2.76c-.672 0-1.27.55-1.27 1.37v2.32c0 .163.06.432.198.74.136.302.316.573.492.75l.014.013 3.84 4.04a.752.752 0 0 1 .036.041 4.6 4.6 0 0 1 .675 1.18c.173.432.305.934.305 1.416v5.35c0 .99 1.135 1.602 1.98 1.085l1.403-.905a.75.75 0 1 1 .814 1.26l-1.41.91-.013.008c-1.774 1.097-4.274-.11-4.274-2.358v-5.35c0-.228-.068-.536-.198-.86a3.17 3.17 0 0 0-.426-.765L3.682 8.993a4.096 4.096 0 0 1-.793-1.189C2.7 7.383 2.56 6.897 2.56 6.45V4.13c0-1.6 1.222-2.87 2.77-2.87h13.34a2.777 2.777 0 0 1 2.77 2.77v2.22c0 .548-.168 1.112-.385 1.588-.218.478-.518.935-.845 1.262a.75.75 0 1 1-1.06-1.06c.173-.173.379-.47.54-.825.163-.357.25-.703.25-.965V4.03c0-.696-.574-1.27-1.27-1.27H5.33Z" clip-rule="evenodd"/><path fill="#000" fill-rule="evenodd" d="M16.88 10.75c-2.206 0-4 1.794-4 4 0 .75.211 1.463.577 2.055l.007.01a3.98 3.98 0 0 0 3.416 1.935 3.959 3.959 0 0 0 3.415-1.933l.005-.008c.37-.606.58-1.311.58-2.059 0-2.206-1.794-4-4-4Zm-5.5 4c0-3.034 2.466-5.5 5.5-5.5s5.5 2.466 5.5 5.5c0 1.03-.29 2.004-.798 2.837a5.459 5.459 0 0 1-4.702 2.663 5.48 5.48 0 0 1-4.7-2.66 5.41 5.41 0 0 1-.8-2.84Z" clip-rule="evenodd"/><path fill="#000" fill-rule="evenodd" d="M15.11 12.95a.75.75 0 0 1 1.06 0l2.51 2.51a.75.75 0 1 1-1.06 1.06l-2.51-2.51a.75.75 0 0 1 0-1.06Z" clip-rule="evenodd"/><path fill="#000" fill-rule="evenodd" d="M18.66 12.98a.75.75 0 0 1 0 1.06l-2.51 2.51a.75.75 0 1 1-1.06-1.06l2.51-2.51a.75.75 0 0 1 1.06 0Z" clip-rule="evenodd"/><path fill="#000" fill-rule="evenodd" d="M5.33 2.75c-.672 0-1.27.55-1.27 1.37v2.33c0 .154.06.422.201.736.138.306.32.581.495.759l.008.008 3.84 4.04a.749.749 0 0 1 .042.048c.253.317.49.736.665 1.17.173.43.309.935.309 1.419v5.35c0 .99 1.135 1.602 1.98 1.085l1.403-.905a.89.89 0 0 1 .027-.017c.091-.053.235-.2.36-.442.109-.21.166-.42.178-.574a5.269 5.269 0 0 1-1.39-1.54 5.436 5.436 0 0 1-.798-2.837 5.504 5.504 0 0 1 6.322-5.437l1.46-1.286c.172-.182.371-.476.528-.82.163-.358.25-.705.25-.967V4.02c0-.696-.574-1.27-1.27-1.27H5.33ZM2.56 4.12c0-1.6 1.222-2.87 2.77-2.87h13.34a2.777 2.777 0 0 1 2.77 2.77v2.22c0 .548-.168 1.111-.385 1.588-.218.48-.516.937-.84 1.267a.798.798 0 0 1-.04.038l-1.76 1.55a.75.75 0 0 1-.672.166 3.67 3.67 0 0 0-.863-.099c-2.206 0-4 1.794-4 4 0 .748.21 1.453.58 2.059l.004.007c.311.521.737.961 1.248 1.274a.75.75 0 0 1 .358.64v.34c0 .452-.143.925-.348 1.321-.2.386-.506.79-.917 1.036l-1.398.903-.013.008c-1.774 1.097-4.274-.11-4.274-2.358v-5.35c0-.226-.069-.532-.2-.859a3.369 3.369 0 0 0-.428-.77L3.68 8.992a4.216 4.216 0 0 1-.786-1.19c-.189-.418-.334-.905-.334-1.351V4.12Z" clip-rule="evenodd"/></svg>