<svg xmlns="http://www.w3.org/2000/svg" xml:space="preserve" id="Слой_1" x="0" y="0" style="enable-background:new 0 0 166 166" version="1.1" viewBox="0 0 166 166"><style>.st1{stroke:#000;stroke-width:1.5;stroke-miterlimit:10}.st2{fill:none;stroke:#fff;stroke-width:.7;stroke-linecap:round}.st2,.st3,.st5,.st6{stroke-miterlimit:10}.st3{stroke:#fff;stroke-width:.7;stroke-linecap:round}.st5,.st6{fill:#fff;stroke:#000;stroke-width:1.5}.st6{stroke-width:.7;stroke-linecap:round}</style><path d="m134.1 134.9-72.3-21.2c-1.5-.4-2.3-2-1.9-3.5l26.8-91.3c.4-1.5 2-2.3 3.5-1.9l72.3 21.2c1.5.4 2.3 2 1.9 3.5L137.6 133c-.5 1.5-2 2.4-3.5 1.9z" style="fill:#fff;stroke:#000;stroke-miterlimit:10"/><path d="M109.2 86.7c2 .6 4.2-.6 4.8-2.6l8.5-28.8c.6-2-.6-4.2-2.6-4.8-2-.6-4.2.6-4.8 2.6l-8.5 28.8c-.6 2.1.6 4.2 2.6 4.8z" class="st1"/><path d="M111.8 82.6s3.9-13.5 5.4-18.4M119.1 57.6l-.8 2.9M119.9 55.1l-.3.9" class="st2"/><circle cx="106.2" cy="97.1" r="4.6" class="st1"/><path d="M105.3 95.4c-.2.1-.4.3-.6.5 0 .1-.1.1-.1.2s-.1.1-.1.2 0 .1-.1.2M105.7 95.3c-.1 0-.3.1-.4.1M104.7 98.2c.2.3.6.6 1 .7 1 .3 2-.3 2.3-1.3s-.3-2-1.3-2.3" class="st3"/><path d="m101.7 130.7-72.9 18.8c-1.5.4-3-.5-3.4-2L1.6 55.3c-.4-1.5.5-3 2-3.4l72.9-18.8c1.5-.4 3 .5 3.4 2l23.8 92.2c.3 1.5-.6 3.1-2 3.4z" style="stroke:#000;stroke-miterlimit:10"/><path d="M55.8 101c5.6-1.6.4-6.3 3.7-13.4 1.6-3.6 4-8.5 4.1-12.7.2-11.2-17.9-16.8-26.3-4.8-5.5 7.9 4.3 12.4 5.9 5.9 2.7-10.8 17-5.7 11.4 4.5-8 14.3-3.4 21.6 1.2 20.5z" class="st5"/><path d="M59.2 81.4c3.5-7.7.6-13-6-15M46.7 66.4c1.5-.5 3.1-.5 3.4-.5M44.3 67.3s-.5.2-1.4.9" class="st6"/><circle cx="58.4" cy="111.5" r="4.6" class="st5"/><path d="M56.8 110.5c-.1.2-.2.5-.3.8V111.9M57 110.2l-.3.3M57.6 113.2c.4.2.8.2 1.2.1 1-.2 1.6-1.3 1.4-2.3s-1.3-1.6-2.3-1.4" class="st6"/></svg>