<svg version="1.1" id="Слой_1" xmlns="http://www.w3.org/2000/svg" x="0" y="0" viewBox="0 0 82.3 102.3" style="enable-background:new 0 0 82.3 102.3" xml:space="preserve"><style>.st1,.st2{fill:#fff;stroke:#000;stroke-width:1.5;stroke-miterlimit:10}.st2{stroke-width:.7;stroke-linecap:round}</style><path d="M78.8 101.6H3.5c-1.6 0-2.8-1.2-2.8-2.8V3.6C.7 2 2 .8 3.5.8h75.3c1.6 0 2.8 1.2 2.8 2.8v95.2c-.1 1.5-1.4 2.9-2.8 2.8z" style="stroke:#000;stroke-miterlimit:10"/><path class="st1" d="M41.7 61.4c5.8-.1 2-6 7-12 2.5-3.1 6-7.2 7.2-11.2 3-10.8-13-20.8-24.2-11.3-7.3 6.2 1 13.1 4.2 7.2 5.4-9.8 17.9-1.2 9.9 7.3-11.4 11.6-8.8 19.8-4.1 20z"/><path class="st2" d="M50 43.3c5.3-6.6 3.9-12.4-2-16M41.8 25.6c1.6-.1 3.1.3 3.4.4M39.2 25.8s-.5.1-1.6.5"/><circle class="st1" cx="41.6" cy="72.2" r="4.6"/><path class="st2" d="M40.3 70.8c-.1.2-.3.4-.5.7 0 .1-.1.2-.1.2 0 .1 0 .1-.1.2s0 .1-.1.2M40.5 70.6c-.1.1-.2.1-.4.2M40.4 73.6c.3.3.7.4 1.1.4 1 .1 1.9-.8 1.9-1.9s-.8-1.9-1.9-1.9"/></svg>