<svg version="1.1" id="Слой_1" xmlns="http://www.w3.org/2000/svg" x="0" y="0" viewBox="0 0 82.3 102.3" style="enable-background:new 0 0 82.3 102.3" xml:space="preserve"><style>.st1,.st3{stroke:#000;stroke-width:1.5;stroke-miterlimit:10}.st3{stroke:#fff;stroke-width:.7;stroke-linecap:round}</style><path d="M78.8 101.6H3.5c-1.6 0-2.8-1.3-2.8-2.8V3.6C.7 2 2 .8 3.5.8h75.3c1.6 0 2.8 1.3 2.8 2.8l-.1 95.2c.1 1.6-1.1 2.9-2.7 2.8z" style="fill:#fff;stroke:#000;stroke-miterlimit:10"/><path class="st1" d="M41.4 62.4c2.1 0 3.9-1.8 3.9-3.8l.1-30c0-2.1-1.8-3.9-3.8-3.9s-3.9 1.8-3.9 3.8l-.1 30c-.1 2.2 1.7 3.8 3.8 3.9z"/><path d="M42.7 57.7s-.1-14.1 0-19.2m0-6.8v3m0-5.7v.9" style="fill:none;stroke:#fff;stroke-width:.7;stroke-linecap:round;stroke-miterlimit:10"/><circle class="st1" cx="41.2" cy="73" r="4.6"/><path class="st3" d="M40.3 71.3c-.2.1-.4.3-.6.5 0 .1-.1.1-.1.2s-.1.1-.1.2 0 .1-.1.2M40.7 71.2c-.1 0-.3.1-.4.1M39.7 74.1c.2.3.6.6 1 .7 1 .3 2-.3 2.3-1.3s-.3-2-1.3-2.3"/></svg>